<?xml version="1.0" standalone="no"?>
<!DOCTYPE svg PUBLIC "-//W3C//DTD SVG 20010904//EN"
 "http://www.w3.org/TR/2001/REC-SVG-20010904/DTD/svg10.dtd">
<svg version="1.0" xmlns="http://www.w3.org/2000/svg"
 width="1500.000000pt" height="1500.000000pt" viewBox="0 0 1500.000000 1500.000000"
 preserveAspectRatio="xMidYMid meet">
<metadata>
Created by potrace 1.10, written by Peter Selinger 2001-2011
</metadata>
<g transform="translate(0.000000,1500.000000) scale(0.100000,-0.100000)"
fill="#000000" stroke="none">
<path d="M2035 9518 c-3 -7 -4 -587 -3 -1288 l3 -1275 4700 0 4700 0 3 1288 2
1287 -4700 0 c-3751 0 -4702 -3 -4705 -12z m9313 -73 c9 -3 12 -254 12 -1204
0 -702 -4 -1202 -9 -1205 -5 -3 -2082 -6 -4616 -6 -3417 0 -4611 3 -4621 11
-12 10 -14 208 -14 1200 0 1148 1 1188 19 1201 15 11 845 13 4617 11 2530 -2
4605 -5 4612 -8z"/>
<path d="M2285 9278 c-3 -7 -4 -479 -3 -1048 l3 -1035 2220 0 2220 0 0 1045 0
1045 -2218 3 c-1769 2 -2219 0 -2222 -10z m1962 -784 c26 -9 63 -30 81 -47 31
-30 57 -91 46 -109 -8 -13 -64 -9 -64 5 0 7 -13 28 -29 47 -27 33 -32 35 -103
38 -69 4 -76 2 -106 -23 -24 -20 -32 -35 -32 -59 0 -40 32 -66 111 -91 123
-40 145 -49 177 -73 92 -70 81 -189 -23 -248 -32 -19 -55 -23 -120 -23 -69 -1
-87 3 -130 27 -89 49 -127 143 -60 150 27 3 33 -2 45 -30 28 -62 114 -98 188
-79 54 15 82 44 82 86 0 46 -35 77 -113 99 -108 31 -149 50 -188 86 -50 47
-60 96 -31 156 43 88 157 125 269 88z m698 -3 c59 -22 116 -68 152 -122 52
-79 -10 -99 -72 -23 -47 57 -102 83 -175 84 -141 0 -238 -120 -215 -263 24
-142 147 -216 289 -175 28 8 59 31 97 70 66 67 99 76 99 28 0 -42 -78 -125
-147 -156 -74 -34 -184 -34 -253 1 -82 41 -125 93 -153 184 -21 67 -21 105 0
172 33 105 81 158 178 198 63 25 136 26 200 2z m-1935 -3 c72 -17 125 -64 146
-133 17 -52 17 -58 0 -110 -12 -39 -27 -63 -54 -85 -46 -38 -88 -50 -177 -50
-42 0 -76 -5 -83 -12 -7 -7 -12 -41 -12 -84 0 -70 -13 -104 -40 -104 -5 0 -16
7 -24 16 -14 13 -16 53 -16 279 0 226 2 266 16 279 19 20 166 22 244 4z m574
-7 c9 -10 32 -56 50 -102 40 -101 76 -190 121 -294 60 -141 66 -158 53 -166
-35 -22 -57 -8 -83 51 -34 82 -32 81 -179 78 l-131 -3 -25 -51 c-14 -28 -31
-58 -39 -68 -17 -20 -50 -21 -57 -1 -5 12 37 125 131 350 7 17 27 66 45 110
49 117 75 139 114 96z m2000 -27 c12 -22 27 -56 34 -75 7 -19 19 -47 27 -64
13 -29 107 -258 141 -343 14 -37 15 -45 3 -53 -33 -21 -58 -3 -84 61 -30 73
-24 70 -172 70 l-134 0 -29 -64 c-29 -64 -51 -83 -84 -70 -20 8 -20 14 -2 56
8 18 49 116 91 218 43 102 83 199 91 217 8 17 14 35 14 39 0 17 46 55 64 52
11 -2 28 -20 40 -44z m444 34 c9 -9 12 -76 12 -239 0 -125 3 -234 6 -243 5
-13 25 -16 114 -16 127 0 160 -9 160 -44 0 -13 -7 -27 -16 -30 -9 -3 -80 -6
-159 -6 -79 0 -150 3 -159 6 -14 5 -16 40 -16 289 0 287 1 292 36 294 5 1 15
-4 22 -11z"/>
<path d="M2847 8423 c-16 -4 -17 -16 -15 -121 l3 -117 82 -3 c96 -3 134 11
159 60 23 44 14 113 -19 146 -33 33 -146 52 -210 35z"/>
<path d="M3521 8325 c-12 -26 -21 -52 -21 -57 0 -5 -5 -19 -12 -31 -16 -28
-38 -88 -38 -104 0 -10 27 -13 100 -13 86 0 100 2 100 16 0 28 -70 198 -90
218 -18 18 -19 17 -39 -29z"/>
<path d="M5513 8343 c-3 -10 -21 -55 -39 -101 -51 -124 -52 -122 61 -122 94 0
95 0 95 24 0 13 -13 54 -30 91 -16 37 -30 72 -30 79 0 13 -31 46 -44 46 -3 0
-9 -8 -13 -17z"/>
<path d="M8795 8488 c-59 -29 -89 -78 -88 -140 1 -76 56 -135 147 -159 98 -25
135 -59 101 -93 -25 -25 -63 -19 -97 14 -28 28 -36 31 -86 28 -36 -2 -58 -8
-65 -18 -15 -25 22 -90 72 -124 40 -26 50 -29 135 -29 80 -1 98 3 130 23 72
44 96 129 60 205 -22 47 -75 78 -182 105 -33 8 -72 36 -72 51 0 16 33 39 57
39 14 0 41 -14 60 -30 31 -27 41 -31 86 -28 50 3 52 4 55 33 4 39 -46 101
-102 126 -57 26 -158 24 -211 -3z"/>
<path d="M7120 8474 c-6 -14 -10 -130 -9 -259 0 -198 3 -234 16 -239 8 -3 88
-6 178 -6 118 0 165 3 172 13 10 13 9 99 -1 116 -4 7 -42 11 -95 11 -54 0 -91
4 -99 12 -8 8 -12 62 -12 179 0 92 -3 174 -6 183 -5 12 -21 16 -70 16 -60 0
-65 -2 -74 -26z"/>
<path d="M7566 8492 c-9 -16 -8 -504 2 -514 5 -5 38 -8 73 -6 l64 3 0 260 0
260 -67 3 c-36 2 -69 -1 -72 -6z"/>
<path d="M7836 8492 c-4 -7 -9 -406 -6 -510 0 -10 18 -12 73 -10 l72 3 3 65
c3 81 14 90 103 90 73 0 79 5 79 65 0 60 -6 65 -77 65 -76 0 -103 12 -103 45
0 51 7 55 89 55 101 0 113 9 109 80 l-3 55 -167 3 c-91 1 -169 -1 -172 -6z"/>
<path d="M8265 8478 c-3 -13 -4 -131 -3 -263 l3 -240 183 -3 183 -2 -3 62 -3
63 -90 2 c-49 1 -96 2 -103 2 -9 1 -12 13 -10 39 l3 37 88 3 88 3 -3 57 -3 57
-85 5 -85 5 0 35 0 35 95 3 c102 3 110 7 110 59 0 65 5 63 -186 63 -172 0
-174 0 -179 -22z"/>
<path d="M9174 8464 c-3 -19 -2 -50 3 -67 8 -31 10 -32 73 -35 36 -2 70 -8 75
-13 6 -6 12 -91 15 -192 l5 -182 75 0 75 0 2 178 c0 97 4 184 7 192 3 10 25
15 73 17 l68 3 0 65 0 65 -232 3 -232 2 -7 -36z"/>
<path d="M9690 8497 c0 -8 30 -72 49 -102 9 -16 35 -61 56 -100 21 -38 45 -81
54 -94 11 -17 18 -57 21 -125 l5 -101 75 0 75 0 5 100 c3 68 10 109 21 125 15
24 34 58 113 202 52 95 51 98 -39 98 l-74 0 -34 -59 c-19 -32 -38 -68 -42 -80
-13 -43 -41 -24 -81 57 l-39 77 -83 3 c-45 2 -82 1 -82 -1z"/>
<path d="M10285 8488 c-3 -7 -4 -126 -3 -263 l3 -250 180 0 180 0 3 53 c4 75
-4 82 -102 82 -50 0 -89 5 -99 13 -14 10 -17 37 -19 192 l-3 180 -68 3 c-48 2
-69 -1 -72 -10z"/>
<path d="M10728 8248 c-2 -139 -1 -259 1 -266 2 -10 45 -12 185 -10 l181 3 -1
54 c-1 33 -7 57 -15 62 -8 5 -50 8 -95 7 -44 -1 -86 2 -92 6 -18 11 -15 63 4
70 9 3 49 6 89 6 l73 0 7 30 c4 17 4 43 0 60 l-6 29 -87 3 c-85 3 -87 4 -90
29 -5 39 16 48 114 51 l89 3 0 55 0 55 -177 3 -177 2 -3 -252z"/>
</g>
</svg>
