<svg xmlns="http://www.w3.org/2000/svg" xmlns:xlink="http://www.w3.org/1999/xlink" width="500" zoomAndPan="magnify" viewBox="0 0 375 374.999991" height="500" preserveAspectRatio="xMidYMid meet" version="1.0"><defs><g/></defs><g fill="#ffffff" fill-opacity="1"><g transform="translate(69.888354, 192.518248)"><g><path d="M 2.457031 0 L 4.574219 0 L 4.574219 -5.539062 L 8.164062 -5.539062 C 11.96875 -5.539062 14.425781 -7.730469 14.425781 -11.199219 C 14.425781 -14.640625 11.96875 -16.859375 8.164062 -16.859375 L 2.457031 -16.859375 Z M 4.574219 -7.515625 L 4.574219 -14.835938 L 8.117188 -14.835938 C 10.835938 -14.835938 12.257812 -13.582031 12.257812 -11.175781 C 12.257812 -8.765625 10.835938 -7.515625 8.117188 -7.515625 Z M 4.574219 -7.515625 "/></g></g></g><g fill="#ffffff" fill-opacity="1"><g transform="translate(87.107525, 192.518248)"><g><path d="M 0.410156 0 L 2.671875 0 L 4.214844 -3.828125 L 12.425781 -3.828125 L 14.015625 0 L 16.253906 0 L 9.320312 -16.859375 L 7.34375 -16.859375 Z M 5.035156 -5.804688 L 8.332031 -13.894531 L 11.632812 -5.804688 Z M 5.035156 -5.804688 "/></g></g></g><g fill="#ffffff" fill-opacity="1"><g transform="translate(105.603033, 192.518248)"><g><path d="M 8.066406 0.3125 C 11.753906 0.3125 14.136719 -1.492188 14.136719 -4.429688 C 14.136719 -6.910156 12.476562 -8.40625 8.164062 -9.464844 C 4.890625 -10.257812 3.804688 -11.125 3.804688 -12.523438 C 3.804688 -14.136719 5.25 -15.148438 7.660156 -15.148438 C 10.140625 -15.148438 11.679688 -13.894531 11.726562 -11.871094 L 13.824219 -11.871094 C 13.800781 -15.148438 11.4375 -17.171875 7.660156 -17.171875 C 3.972656 -17.171875 1.636719 -15.363281 1.636719 -12.523438 C 1.636719 -9.921875 3.492188 -8.476562 7.632812 -7.488281 C 10.667969 -6.765625 11.945312 -5.925781 11.945312 -4.359375 C 11.945312 -2.695312 10.453125 -1.710938 8.066406 -1.710938 C 5.441406 -1.710938 3.613281 -3.011719 3.5625 -5.179688 L 1.445312 -5.179688 C 1.46875 -1.878906 4.046875 0.3125 8.066406 0.3125 Z M 8.066406 0.3125 "/></g></g></g><g fill="#ffffff" fill-opacity="1"><g transform="translate(123.014857, 192.518248)"><g><path d="M 9.921875 0.3125 C 14.015625 0.3125 17.339844 -2.167969 18.351562 -5.925781 L 16.109375 -5.925781 C 15.246094 -3.394531 12.859375 -1.804688 9.996094 -1.804688 C 6.238281 -1.804688 3.5625 -4.527344 3.5625 -8.429688 C 3.5625 -12.332031 6.238281 -15.050781 9.996094 -15.050781 C 12.789062 -15.050781 15.074219 -13.558594 15.941406 -11.125 L 18.207031 -11.125 C 17.097656 -14.835938 13.894531 -17.171875 9.921875 -17.171875 C 4.960938 -17.171875 1.398438 -13.511719 1.398438 -8.429688 C 1.398438 -3.347656 4.960938 0.3125 9.921875 0.3125 Z M 9.921875 0.3125 "/></g></g></g><g fill="#ffffff" fill-opacity="1"><g transform="translate(144.496526, 192.518248)"><g><path d="M 0.410156 0 L 2.671875 0 L 4.214844 -3.828125 L 12.425781 -3.828125 L 14.015625 0 L 16.253906 0 L 9.320312 -16.859375 L 7.34375 -16.859375 Z M 5.035156 -5.804688 L 8.332031 -13.894531 L 11.632812 -5.804688 Z M 5.035156 -5.804688 "/></g></g></g><g fill="#ffffff" fill-opacity="1"><g transform="translate(162.992031, 192.518248)"><g><path d="M 2.457031 0 L 12.765625 0 L 12.765625 -2.023438 L 4.574219 -2.023438 L 4.574219 -16.859375 L 2.457031 -16.859375 Z M 2.457031 0 "/></g></g></g><g fill="#ffffff" fill-opacity="1"><g transform="translate(185.809488, 192.618254)"><g><path d="M 1.707031 0 L 12.972656 0 L 12.972656 -4.316406 L 6.371094 -4.316406 L 6.371094 -16.160156 L 1.707031 -16.160156 Z M 1.707031 0 "/></g></g></g><g fill="#ffffff" fill-opacity="1"><g transform="translate(199.354017, 192.618254)"><g><path d="M 1.707031 0 L 6.371094 0 L 6.371094 -16.160156 L 1.707031 -16.160156 Z M 1.707031 0 "/></g></g></g><g fill="#ffffff" fill-opacity="1"><g transform="translate(207.429974, 192.618254)"><g><path d="M 1.707031 0 L 6.371094 0 L 6.371094 -4.800781 L 11.773438 -4.800781 L 11.773438 -8.839844 L 6.371094 -8.839844 L 6.371094 -12.003906 L 12.375 -12.003906 L 12.375 -16.160156 L 1.707031 -16.160156 Z M 1.707031 0 "/></g></g></g><g fill="#ffffff" fill-opacity="1"><g transform="translate(220.674541, 192.618254)"><g><path d="M 1.707031 0 L 13.042969 0 L 13.042969 -3.808594 L 6.324219 -3.808594 L 6.324219 -6.300781 L 12.164062 -6.300781 L 12.164062 -10.042969 L 6.324219 -10.042969 L 6.324219 -12.398438 L 12.789062 -12.398438 L 12.789062 -16.160156 L 1.707031 -16.160156 Z M 1.707031 0 "/></g></g></g><g fill="#ffffff" fill-opacity="1"><g transform="translate(234.749778, 192.618254)"><g><path d="M 7.503906 0.347656 C 11.519531 0.347656 13.898438 -1.546875 13.898438 -4.734375 C 13.898438 -7.410156 12.164062 -8.980469 8.242188 -9.855469 C 6.164062 -10.320312 5.402344 -10.828125 5.402344 -11.65625 C 5.402344 -12.441406 6.09375 -12.925781 7.179688 -12.925781 C 8.472656 -12.925781 9.210938 -12.257812 9.210938 -11.035156 L 13.597656 -11.035156 C 13.597656 -14.359375 11.058594 -16.503906 7.085938 -16.503906 C 3.277344 -16.503906 0.921875 -14.613281 0.921875 -11.566406 C 0.921875 -8.839844 2.699219 -7.15625 6.347656 -6.464844 C 8.3125 -6.070312 9.257812 -5.472656 9.257812 -4.546875 C 9.257812 -3.738281 8.566406 -3.277344 7.433594 -3.277344 C 6.09375 -3.277344 5.308594 -3.992188 5.308594 -5.242188 L 0.808594 -5.242188 C 0.808594 -1.753906 3.300781 0.347656 7.503906 0.347656 Z M 7.503906 0.347656 "/></g></g></g><g fill="#ffffff" fill-opacity="1"><g transform="translate(249.494162, 192.618254)"><g><path d="M 5.5625 0 L 10.203125 0 L 10.203125 -11.84375 L 15.121094 -11.84375 L 15.121094 -16.160156 L 0.644531 -16.160156 L 0.644531 -11.84375 L 5.5625 -11.84375 Z M 5.5625 0 "/></g></g></g><g fill="#ffffff" fill-opacity="1"><g transform="translate(265.253808, 192.618254)"><g><path d="M 6.003906 0 L 10.640625 0 L 10.640625 -5.632812 L 16.527344 -16.160156 L 11.242188 -16.160156 L 8.3125 -10.363281 L 7.0625 -12.8125 L 5.355469 -16.160156 L 0.117188 -16.160156 L 6.003906 -5.609375 Z M 6.003906 0 "/></g></g></g><g fill="#ffffff" fill-opacity="1"><g transform="translate(281.890266, 192.618254)"><g><path d="M 1.707031 0 L 12.972656 0 L 12.972656 -4.316406 L 6.371094 -4.316406 L 6.371094 -16.160156 L 1.707031 -16.160156 Z M 1.707031 0 "/></g></g></g><g fill="#ffffff" fill-opacity="1"><g transform="translate(295.434794, 192.618254)"><g><path d="M 1.707031 0 L 13.042969 0 L 13.042969 -3.808594 L 6.324219 -3.808594 L 6.324219 -6.300781 L 12.164062 -6.300781 L 12.164062 -10.042969 L 6.324219 -10.042969 L 6.324219 -12.398438 L 12.789062 -12.398438 L 12.789062 -16.160156 L 1.707031 -16.160156 Z M 1.707031 0 "/></g></g></g></svg>