<svg xmlns="http://www.w3.org/2000/svg" xmlns:xlink="http://www.w3.org/1999/xlink" width="500" zoomAndPan="magnify" viewBox="0 0 375 374.999991" height="500" preserveAspectRatio="xMidYMid meet" version="1.0"><defs><clipPath id="5faffdf4d2"><path d="M 130.125 112.5 L 271.640625 112.5 L 271.640625 297.75 L 130.125 297.75 Z M 130.125 112.5 " clip-rule="nonzero"/></clipPath></defs><g clip-path="url(#5faffdf4d2)"><path fill="#ffffff" d="M 139.070312 162.90625 L 139.238281 172.625 L 131.71875 179.144531 C 129.890625 180.765625 130.429688 183.878906 133.007812 184.628906 L 142.394531 187.492188 L 146.257812 196.671875 C 147.257812 199.039062 150.457031 199.246094 151.824219 197.210938 L 157.519531 189.070312 L 167.445312 188.199219 C 169.980469 187.992188 171.269531 185.085938 169.605469 183.007812 L 163.707031 175.199219 L 165.953125 165.523438 C 166.492188 163.195312 164.246094 160.871094 161.628906 161.910156 L 152.40625 165.066406 L 143.847656 159.914062 C 141.648438 158.546875 138.863281 160.332031 139.070312 162.90625 Z M 145.636719 173.996094 L 145.511719 168.304688 L 150.414062 171.253906 C 151.203125 171.710938 152.160156 171.835938 153.074219 171.546875 L 158.472656 169.675781 L 157.226562 175.117188 C 156.976562 176.03125 157.144531 177.027344 157.765625 177.859375 L 161.214844 182.386719 L 155.566406 182.882812 C 154.652344 182.964844 153.777344 183.421875 153.238281 184.210938 L 149.957031 188.90625 L 147.753906 183.671875 C 147.421875 182.84375 146.714844 182.136719 145.761719 181.886719 L 140.277344 180.226562 L 144.597656 176.488281 C 145.21875 175.863281 145.636719 174.949219 145.636719 173.996094 Z M 246.671875 191.730469 L 258.261719 171.628906 C 259.46875 172 260.714844 172.25 261.960938 172.335938 L 250.039062 193.019531 C 248.914062 192.644531 247.792969 192.230469 246.671875 191.730469 Z M 252.820312 168.429688 L 241.1875 188.53125 C 240.191406 187.828125 239.277344 187.078125 238.40625 186.246094 L 250.328125 165.5625 C 251.074219 166.644531 251.867188 167.597656 252.820312 168.429688 Z M 249.582031 155.265625 C 249 155.554688 248.542969 156.011719 248.25 156.550781 L 231.714844 185.167969 C 231.011719 186.414062 231.21875 187.910156 232.089844 188.863281 C 234.457031 191.480469 237.449219 193.847656 240.691406 195.71875 C 243.929688 197.585938 247.421875 198.957031 250.910156 199.703125 C 252.324219 199.996094 253.734375 199.289062 254.398438 198.085938 L 270.894531 169.511719 C 271.226562 168.929688 271.308594 168.386719 271.308594 167.808594 L 271.597656 147.703125 C 271.640625 145.210938 268.898438 143.675781 266.78125 144.964844 Z M 265.035156 165.730469 C 262.832031 166.269531 260.546875 165.980469 258.554688 164.816406 C 256.601562 163.652344 255.148438 161.824219 254.523438 159.667969 L 265.203125 153.3125 Z M 234.707031 272.511719 L 234.167969 272.511719 L 234.167969 258.808594 C 252.324219 247.84375 261.960938 226.992188 258.429688 205.894531 C 258.179688 204.355469 256.808594 203.234375 255.3125 203.234375 L 159.59375 203.234375 C 157.933594 203.234375 156.605469 204.480469 156.4375 206.101562 C 156.105469 208.386719 156.023438 208.59375 155.855469 211.335938 C 155.730469 213.410156 155.730469 214.949219 155.8125 217.023438 C 155.855469 217.480469 155.855469 217.9375 155.898438 218.394531 L 143.515625 237.042969 C 142.3125 238.871094 143.269531 241.28125 145.34375 241.863281 L 156.105469 244.726562 L 156.105469 263.003906 C 156.105469 264.746094 157.519531 266.199219 159.261719 266.199219 L 187.429688 266.199219 L 187.429688 272.472656 L 186.140625 272.472656 C 179.203125 272.472656 173.554688 278.121094 173.554688 285.054688 L 173.554688 294.441406 C 173.554688 296.1875 174.964844 297.640625 176.710938 297.640625 L 241.394531 297.640625 C 243.140625 297.640625 244.554688 296.230469 244.554688 294.441406 L 244.554688 282.398438 C 244.59375 276.957031 240.148438 272.511719 234.707031 272.511719 Z M 186.183594 278.910156 L 234.707031 278.910156 C 236.617188 278.910156 238.195312 280.488281 238.195312 282.398438 L 238.195312 291.371094 L 179.953125 291.371094 L 179.953125 285.140625 C 179.953125 281.691406 182.777344 278.910156 186.183594 278.910156 Z M 162.171875 211.75 C 162.210938 211.085938 162.296875 210.378906 162.378906 209.632812 L 252.570312 209.632812 C 253.609375 219.558594 251.449219 229.277344 246.589844 237.542969 C 242.519531 244.4375 236.660156 250.167969 229.679688 254.113281 C 228.601562 254.613281 227.8125 255.734375 227.8125 257.019531 L 227.8125 272.554688 L 193.785156 272.554688 L 193.785156 263.125 C 193.785156 261.382812 192.375 259.96875 190.628906 259.96875 L 162.503906 259.96875 L 162.503906 242.441406 C 162.503906 241.03125 161.546875 239.742188 160.136719 239.371094 L 151.285156 237.003906 L 161.839844 221.09375 C 162.667969 219.847656 162.296875 218.5625 162.171875 216.859375 Z M 166.492188 149.617188 C 164.746094 149.617188 163.332031 151.027344 163.332031 152.773438 C 163.332031 154.515625 164.746094 155.929688 166.492188 155.929688 L 174.425781 155.929688 C 176.171875 155.929688 177.582031 154.515625 177.582031 152.773438 C 177.582031 151.027344 176.171875 149.617188 174.425781 149.617188 Z M 240.523438 155.96875 C 242.269531 155.96875 243.722656 154.558594 243.722656 152.8125 C 243.722656 151.070312 242.308594 149.65625 240.523438 149.65625 L 232.589844 149.65625 C 230.84375 149.65625 229.429688 151.070312 229.429688 152.8125 C 229.429688 154.558594 230.84375 155.96875 232.589844 155.96875 Z M 231.925781 128.847656 C 233.171875 127.601562 233.171875 125.609375 231.925781 124.363281 C 230.675781 123.117188 228.683594 123.117188 227.4375 124.363281 L 221.828125 129.96875 C 220.582031 131.214844 220.582031 133.210938 221.828125 134.457031 C 223.074219 135.703125 225.070312 135.703125 226.316406 134.457031 Z M 206.664062 115.765625 C 206.664062 114.019531 205.253906 112.609375 203.507812 112.609375 C 201.761719 112.609375 200.351562 114.019531 200.351562 115.765625 L 200.351562 123.699219 C 200.351562 125.441406 201.761719 126.855469 203.507812 126.855469 C 205.253906 126.855469 206.664062 125.441406 206.664062 123.699219 Z M 179.578125 124.363281 C 178.332031 123.117188 176.335938 123.117188 175.089844 124.363281 C 173.84375 125.609375 173.84375 127.601562 175.089844 128.847656 L 180.699219 134.457031 C 181.945312 135.703125 183.941406 135.703125 185.1875 134.457031 C 186.433594 133.210938 186.433594 131.214844 185.1875 129.96875 Z M 189.464844 168.429688 C 185.476562 171.792969 186.058594 181.222656 191.417969 182.675781 C 197.980469 195.71875 209.074219 195.71875 215.636719 182.675781 C 220.996094 181.179688 221.578125 171.710938 217.550781 168.386719 C 218.089844 167.597656 218.671875 166.894531 219.253906 166.1875 C 221.828125 163.113281 224.363281 160.082031 224.363281 152.648438 C 224.363281 141.140625 215.015625 131.796875 203.507812 131.796875 C 192 131.796875 182.652344 141.140625 182.652344 152.648438 C 182.652344 160.125 185.1875 163.15625 187.761719 166.269531 C 188.34375 166.976562 188.925781 167.640625 189.464844 168.429688 Z M 198.894531 182.882812 L 208.117188 182.882812 C 205.003906 187.160156 202.054688 187.160156 198.894531 182.882812 Z M 192.914062 173.582031 L 214.101562 173.582031 C 214.476562 173.582031 213.644531 173.746094 213.6875 173.914062 C 213.851562 174.578125 213.851562 175.492188 213.6875 176.15625 C 213.644531 176.320312 214.476562 176.488281 214.101562 176.488281 L 192.914062 176.488281 C 192.539062 176.488281 193.414062 176.320312 193.328125 176.15625 C 193.164062 175.492188 193.164062 174.535156 193.328125 173.914062 C 193.414062 173.746094 192.539062 173.582031 192.914062 173.582031 Z M 193.289062 142.429688 C 198.9375 136.78125 208.117188 136.78125 213.769531 142.429688 C 216.386719 145.046875 218.007812 148.660156 218.007812 152.648438 C 218.007812 160.746094 213.6875 161.371094 210.902344 167.226562 L 196.070312 167.226562 C 193.289062 161.453125 189.007812 160.746094 189.007812 152.648438 C 189.007812 148.660156 190.628906 145.003906 193.289062 142.429688 Z M 193.289062 142.429688 " fill-opacity="1" fill-rule="nonzero"/></g></svg>